<?xml version="1.0" encoding="utf-8"?>
<!-- Generator: Adobe Illustrator 24.1.1, SVG Export Plug-In . SVG Version: 6.00 Build 0)  -->
<svg version="1.1" id="Layer_1" xmlns="http://www.w3.org/2000/svg" xmlns:xlink="http://www.w3.org/1999/xlink" x="0px" y="0px"
	 viewBox="0 0 472.6 472.6" style="enable-background:new 0 0 472.6 472.6;" xml:space="preserve">
<style type="text/css">
	.st0{fill:url(#SVGID_1_);}
</style>
<g>
	<g>
		<linearGradient id="SVGID_1_" gradientUnits="userSpaceOnUse" x1="1.2563" y1="236.3075" x2="471.3586" y2="236.3075">
			<stop  offset="9.681973e-08" style="stop-color:#F15363"/>
			<stop  offset="1" style="stop-color:#F78F6A"/>
		</linearGradient>
		<path class="st0" d="M155.9,73v280.1c-3.3-2.9-6.9-5.6-10.9-8c-20.4-11.9-47.5-14.7-74.1-7.5C24,350.1-6.4,389.7,3,425.8
			c3.9,14.7,13.6,26.9,28.1,35.4c13,7.5,28.5,11.4,45,11.4c9.5,0,19.3-1.3,29.1-3.9c40.8-10.9,69.1-42.4,69.5-74.1h0.1V178.6
			l277.9-64.3v170c-3.3-2.9-6.9-5.6-11-7.9c-20.4-11.9-47.4-14.6-74.1-7.5c-46.8,12.5-77.2,52.1-67.8,88.2c3.9,14.8,13.5,27,28,35.4
			c13,7.5,28.6,11.4,45,11.4c9.5,0,19.3-1.3,29.1-3.9c41.3-11,69.9-43.1,69.5-75.3V0L155.9,73z"/>
	</g>
</g>
</svg>
