<?xml version="1.0" encoding="utf-8"?>
<!-- Generator: Adobe Illustrator 24.1.2, SVG Export Plug-In . SVG Version: 6.00 Build 0)  -->
<svg version="1.1" id="Calque_1" xmlns="http://www.w3.org/2000/svg" xmlns:xlink="http://www.w3.org/1999/xlink" x="0px" y="0px"
	 viewBox="0 0 100 8" style="enable-background:new 0 0 100 8;" xml:space="preserve">
<style type="text/css">
	.st0{fill:#0670F3;}
</style>
<g transform="translate(100 8) rotate(180)">
	<path class="st0" d="M0.1,7.7c0.6-2.3,1.4-4.2,2.3-5.5C3.4,0.8,4.5,0,5.7,0h94.2l-1.5,2.6H12.3H7.9C5.1,2.6,2.4,4.4,0.1,7.7z"/>
	<path class="st0" d="M5.7,0.1c-1.1,0-2.3,0.7-3.3,2.2c-0.8,1.2-1.6,3-2.2,5.2c2.2-3.2,4.9-4.9,7.7-4.9h4.4h86.1l1.4-2.5L5.7,0.1
		 M5.7,0H100l0,0l-1.6,2.7H12.3H7.9C5,2.7,2.3,4.5,0,8c0.6-2.4,1.4-4.4,2.4-5.8S4.5,0,5.7,0z M100,0L100,0L100,0z"/>
</g>
</svg>
