<?xml version="1.0" encoding="utf-8"?>
<!-- Generator: Adobe Illustrator 24.1.2, SVG Export Plug-In . SVG Version: 6.00 Build 0)  -->
<svg version="1.1" id="Calque_1" xmlns="http://www.w3.org/2000/svg" xmlns:xlink="http://www.w3.org/1999/xlink" x="0px" y="0px"
	 viewBox="0 0 100 8" style="enable-background:new 0 0 100 8;" xml:space="preserve">
<style type="text/css">
	.st0{fill:#229DF9;}
</style>
<g>
	<path class="st0" d="M99.9,7.9H5.7c-1.2,0-2.3-0.8-3.3-2.2C1.5,4.4,0.7,2.5,0.1,0.3c2.3,3.3,5,5.1,7.8,5.1h4.4h86.1L99.9,7.9z"/>
	<path class="st0" d="M99.8,7.9l-1.4-2.5H12.3H7.9c-2.8,0-5.4-1.7-7.7-4.9c0.6,2.1,1.3,3.9,2.2,5.2c1,1.4,2.1,2.2,3.3,2.2L99.8,7.9
		 M100,8L100,8L100,8z M100,8H5.7C4.5,8,3.4,7.2,2.4,5.8S0.6,2.4,0,0c2.3,3.5,5,5.3,7.9,5.3h4.4h86.1L100,8L100,8z"/>
</g>
</svg>
