<?xml version="1.0" encoding="utf-8"?>
<!-- Generator: Adobe Illustrator 24.1.2, SVG Export Plug-In . SVG Version: 6.00 Build 0)  -->
<svg version="1.1" id="Calque_1" xmlns="http://www.w3.org/2000/svg" xmlns:xlink="http://www.w3.org/1999/xlink" x="0px" y="0px"
	 viewBox="0 0 100 4" style="enable-background:new 0 0 100 4;" xml:space="preserve">
<style type="text/css">
	.st0{fill:#633D41;}
</style>
<path class="st0" d="M1.2,2.9c-3-1.5,0.7-2.3,2.2-2.6s14.7,0,14.7,0S22.5,0.7,33.5,1s22.6,0,22.6,0s11.3,0,20.8-0.7s23.8,0.3,23,0.7
	s0,2.3-4.9,2.6s-1,0.2-6,0s-4.4,0.9-14.8,0c-3.9-0.3-8.2,0-11.4,0c-4.9,0-10.3,0-10.3,0s-9.8,1-15,0c-0.2,0-9,0-11.8,0
	c-3.8,0-11.4,0-11.4,0S4.2,4.3,1.2,2.9z"/>
</svg>
